<?xml version="1.0" standalone="no"?><!DOCTYPE svg PUBLIC "-//W3C//DTD SVG 1.1//EN" "http://www.w3.org/Graphics/SVG/1.1/DTD/svg11.dtd"><svg class="icon" width="200px" height="200.00px" viewBox="0 0 1024 1024" version="1.1" xmlns="http://www.w3.org/2000/svg"><path d="M28.717511 509.428622c0.068267 263.850667 213.8112 477.684622 477.411556 477.639111 263.600356-0.045511 477.275022-213.970489 477.229511-477.843911 0-263.850667-213.720178-477.752889-477.320534-477.752889-126.611911 0-248.035556 50.3808-337.555911 140.014934a478.094222 478.094222 0 0 0-139.764622 337.92z" fill="#FFFFFF" /><path d="M856.814933 833.9456c-12.811378-67.1744-130.753422-131.390578-236.612266-166.479644-5.165511-1.729422-37.387378-16.201956-17.2032-77.459912 52.747378-54.0672 92.728889-141.175467 92.728889-226.941155 0-131.754667-87.699911-200.886044-189.622045-200.886045-101.944889 0-189.394489 69.063111-189.394489 200.886045 0 86.038756 40.004267 173.488356 92.842667 227.487289 20.593778 53.976178-16.224711 74.092089-23.984356 76.777244-100.693333 36.340622-217.679644 100.784356-230.559289 166.479645a478.685867 478.685867 0 0 1-55.591822-574.350223 477.639111 477.639111 0 0 1 536.9856-209.942755C842.183111 107.633778 984.314311 295.5264 984.450844 509.5424a475.363556 475.363556 0 0 1-127.635911 324.4032" fill="#B8D4FF" /></svg>